HIERARCHY
ROOT Hips
{
	OFFSET 0.000000 0.000000 0.000000
	CHANNELS 6 Xposition Yposition Zposition Xrotation Yrotation Zrotation
	JOINT LeftUpLeg_virtual
	{
		OFFSET 0.000000 0.000000 0.000000
		CHANNELS 3 Xrotation Yrotation Zrotation
		JOINT LeftUpLeg
		{
			OFFSET 13.026900 -6.336304 -1.092800
			CHANNELS 3 Xrotation Yrotation Zrotation
			JOINT LeftLeg
			{
				OFFSET 0.524474 -46.096886 9.782700
				CHANNELS 3 Xrotation Yrotation Zrotation
				JOINT LeftFoot
				{
					OFFSET -0.524474 -53.427422 -12.948200
					CHANNELS 3 Xrotation Yrotation Zrotation
					JOINT LeftToeBase
					{
						OFFSET 0.192200 -14.009700 16.364100
						CHANNELS 3 Xrotation Yrotation Zrotation
						JOINT LeftToe_End
						{
							OFFSET -1.784700 -0.561700 9.474800
							CHANNELS 3 Xrotation Yrotation Zrotation
							End Site
							{
								OFFSET 0 0 0
							}
						}
					}
				}
			}
		}
	}
	JOINT RightUpLeg_virtual
	{
		OFFSET 0.000000 0.000000 0.000000
		CHANNELS 3 Xrotation Yrotation Zrotation
		JOINT RightUpLeg
		{
			OFFSET -12.883000 -6.336304 -1.092800
			CHANNELS 3 Xrotation Yrotation Zrotation
			JOINT RightLeg
			{
				OFFSET -0.524587 -46.096825 9.782800
				CHANNELS 3 Xrotation Yrotation Zrotation
				JOINT RightFoot
				{
					OFFSET 0.524587 -53.427383 -12.948300
					CHANNELS 3 Xrotation Yrotation Zrotation
					JOINT RightToeBase
					{
						OFFSET -0.192200 -14.009700 16.364100
						CHANNELS 3 Xrotation Yrotation Zrotation
						JOINT RightToe_End
						{
							OFFSET 1.784700 -0.561700 9.474800
							CHANNELS 3 Xrotation Yrotation Zrotation
							End Site
							{
								OFFSET 0 0 0
							}
						}
					}
				}
			}
		}
	}
	JOINT Spine_virtual
	{
		OFFSET 0.000000 0.000000 0.000000
		CHANNELS 3 Xrotation Yrotation Zrotation
		JOINT Spine
		{
			OFFSET 0.072000 7.257294 -0.789700
			CHANNELS 3 Xrotation Yrotation Zrotation
			JOINT Spine1
			{
				OFFSET 0.000000 12.508769 -0.658067
				CHANNELS 3 Xrotation Yrotation Zrotation
				JOINT Spine1_split
				{
					OFFSET 0.000000 12.508769 -0.658067
					CHANNELS 3 Xrotation Yrotation Zrotation
					JOINT Spine2
					{
						OFFSET 0.000000 12.508769 -0.658067
						CHANNELS 3 Xrotation Yrotation Zrotation
						JOINT Neck_virtual
						{
							OFFSET 0.000000 0.000000 0.000000
							CHANNELS 3 Xrotation Yrotation Zrotation
							JOINT Neck
							{
								OFFSET 0.000000 14.033295 7.520400
								CHANNELS 3 Xrotation Yrotation Zrotation
								JOINT Head
								{
									OFFSET 0.000000 8.198502 5.703100
									CHANNELS 3 Xrotation Yrotation Zrotation
									JOINT HeadTop_End
									{
										OFFSET 0.000000 17.760803 13.332701
										CHANNELS 3 Xrotation Yrotation Zrotation
										End Site
										{
											OFFSET 0 0 0
										}
									}
								}
							}
						}
						JOINT LeftShoulder_virtual
						{
							OFFSET 0.000000 0.000000 0.000000
							CHANNELS 3 Xrotation Yrotation Zrotation
							JOINT LeftShoulder
							{
								OFFSET 6.292450 5.785301 -0.669000
								CHANNELS 3 Xrotation Yrotation Zrotation
								JOINT LeftShoulder_split
								{
									OFFSET 6.292450 5.785301 -0.669000
									CHANNELS 3 Xrotation Yrotation Zrotation
									JOINT LeftArm
									{
										OFFSET 13.907140 -6.093903 1.965100
										CHANNELS 3 Xrotation Yrotation Zrotation
										JOINT LeftForeArm
										{
											OFFSET 34.140198 0.000000 0.000000
											CHANNELS 3 Xrotation Yrotation Zrotation
											JOINT LeftHand
											{
												OFFSET 40.960209 0.000000 0.000000
												CHANNELS 3 Xrotation Yrotation Zrotation
												End Site
												{
													OFFSET 0 0 0
												}
											}
										}
									}
								}
							}
						}
						JOINT RightShoulder_virtual
						{
							OFFSET 0.000000 0.000000 0.000000
							CHANNELS 3 Xrotation Yrotation Zrotation
							JOINT RightShoulder
							{
								OFFSET -6.292450 5.785301 -0.669000
								CHANNELS 3 Xrotation Yrotation Zrotation
								JOINT RightShoulder_split
								{
									OFFSET -6.292450 5.785301 -0.669000
									CHANNELS 3 Xrotation Yrotation Zrotation
									JOINT RightArm
									{
										OFFSET -13.907140 -6.093903 1.965100
										CHANNELS 3 Xrotation Yrotation Zrotation
										JOINT RightForeArm
										{
											OFFSET -34.140198 0.000000 0.000000
											CHANNELS 3 Xrotation Yrotation Zrotation
											JOINT RightHand
											{
												OFFSET -40.960209 0.000000 0.000000
												CHANNELS 3 Xrotation Yrotation Zrotation
												End Site
												{
													OFFSET 0 0 0
												}
											}
										}
									}
								}
							}
						}
					}
				}
			}
		}
	}
}
MOTION
Frames: 5
Frame Time: 0.03333333
3.070093 110.165276 7.787815 0.000000 0.000000 0.000000 23.105051 13.152129 2.191267 -27.878054 13.844780 12.301020 23.698827 3.719722 -3.153483 -1.614411 26.203124 -12.586720 -5.638248 -0.482504 -0.990705 0.000000 0.000000 0.000000 24.434684 10.679499 2.740029 -65.239829 -8.713567 -13.493764 48.048649 3.411520 -3.935837 -1.514327 -8.221380 5.146552 -0.132178 0.309674 0.081737 0.000000 0.000000 0.000000 22.061625 11.893822 3.695063 12.028050 -0.485140 1.581371 8.560380 2.171312 -2.985050 0.323621 -0.800937 0.715466 0.000000 0.000000 0.000000 9.459111 2.150813 -3.322853 -7.503021 5.281099 -0.109033 -22.845478 -1.875454 -9.306394 0.000000 0.000000 0.000000 10.532196 2.046259 -2.774960 1.448571 4.384381 -8.689041 -0.289876 -2.422703 -1.789010 -29.179801 -1.180508 -58.512462 1.604650 -41.224228 -0.098494 0.000000 0.000000 0.000000 9.329771 1.609037 -3.189431 4.399864 23.621233 3.642824 -0.738733 5.099616 -0.245105 -22.247518 -14.765715 62.735909 -0.188152 36.704467 0.667695 0.000000 0.000000 0.000000 
3.311061 111.739311 10.088345 0.000000 0.000000 0.000000 22.470522 12.747133 2.489686 -28.944491 12.434544 11.467142 21.517886 5.080117 -2.993104 -0.749457 26.415207 -12.078802 -4.557645 -0.421340 -1.165338 0.000000 0.000000 0.000000 24.857823 9.859586 2.953013 -62.743060 -9.297776 -13.995946 46.342605 3.145164 -4.023460 -0.965562 -8.934491 4.666364 -1.301592 0.300324 0.265094 0.000000 0.000000 0.000000 22.713258 11.694801 3.493224 11.654067 0.120640 2.055686 8.564381 2.396510 -2.835884 0.327725 0.224028 1.227041 0.000000 0.000000 0.000000 9.365940 2.315036 -3.237552 -7.345875 4.814705 -0.310374 -23.042634 -1.899727 -9.554074 0.000000 0.000000 0.000000 10.447563 2.203230 -2.707941 1.497419 5.081845 -8.204848 -1.320219 -0.759770 -1.765419 -27.577652 1.177088 -57.200642 0.962877 -39.815307 -0.418194 0.000000 0.000000 0.000000 9.432228 1.843924 -3.115765 4.624935 23.380957 3.577246 -1.492914 4.931707 -1.373244 -22.881506 -16.967865 61.901800 -0.237206 36.369258 0.776484 0.000000 0.000000 0.000000 
3.632279 113.760262 13.340153 0.000000 0.000000 0.000000 21.516289 13.966641 2.812856 -31.438015 10.907731 10.089542 19.550860 6.230906 -2.908807 1.707154 26.113994 -12.879858 -2.391796 -0.429626 -1.316858 0.000000 0.000000 0.000000 24.429521 10.543940 3.147393 -57.930249 -11.076628 -15.209675 44.044485 2.920990 -3.972726 -2.301278 -10.073721 3.623945 -2.995146 0.349387 0.432137 0.000000 0.000000 0.000000 23.243497 12.002325 3.451600 11.476964 1.186670 2.739877 8.575661 2.919222 -2.361135 0.403928 0.378645 1.031509 0.000000 0.000000 0.000000 9.392066 2.769873 -2.742790 -7.295153 4.144753 -0.996492 -23.994709 -1.966372 -10.445805 0.000000 0.000000 0.000000 10.257285 2.662789 -2.319862 1.480473 5.126842 -8.019670 -1.696896 0.419348 -1.440385 -23.954713 4.136671 -55.023300 0.426910 -39.387000 -0.654743 0.000000 0.000000 0.000000 9.495859 2.370678 -2.661912 4.916006 22.891094 2.908916 -2.190275 4.821908 -2.098812 -24.921552 -19.262972 59.758739 -0.517342 37.112434 1.043171 0.000000 0.000000 0.000000 
3.975210 115.119049 17.284603 0.000000 0.000000 0.000000 20.308251 15.842808 3.154751 -34.839005 9.812241 8.414761 18.768168 6.995350 -2.908150 4.796168 25.147252 -14.426331 -1.141230 -0.554359 -1.046003 0.000000 0.000000 0.000000 23.209210 12.223859 3.369016 -52.126303 -13.742997 -16.620869 42.031191 2.964289 -3.701060 -5.075969 -11.310608 2.656746 -4.596740 0.479921 0.498174 0.000000 0.000000 0.000000 23.118983 13.164073 3.470975 11.522297 2.543771 3.465477 8.540064 3.638601 -1.681560 0.438459 -0.046466 0.704413 0.000000 0.000000 0.000000 9.535926 3.437289 -1.947954 -7.430956 3.308467 -1.918558 -25.476117 -2.287114 -11.716138 0.000000 0.000000 0.000000 9.958363 3.369823 -1.670328 1.465672 4.450479 -7.954759 -1.348176 0.671998 -0.989549 -19.393376 6.693912 -53.063688 0.183754 -40.046075 -0.738262 0.000000 0.000000 0.000000 9.516877 3.109476 -1.930166 5.168967 22.399284 1.795207 -2.997655 4.803121 -2.350680 -28.131538 -20.430663 56.586188 -0.852378 38.510137 1.306526 0.000000 0.000000 0.000000 
4.186688 115.137062 21.629116 0.000000 0.000000 0.000000 18.947635 17.736389 3.470998 -38.440971 9.610345 6.797510 19.565541 7.673744 -3.026598 6.280214 23.830236 -14.846084 -1.886919 -0.749451 -0.322812 0.000000 0.000000 0.000000 21.895075 14.214416 3.522764 -46.202490 -16.965440 -17.501253 40.688455 3.393146 -3.352734 -9.285068 -12.514191 2.258521 -5.886023 0.671105 0.350931 0.000000 0.000000 0.000000 22.234245 15.088216 3.370034 11.723614 4.075948 4.166429 8.437941 4.451492 -0.893902 0.134824 -0.076879 0.325314 0.000000 0.000000 0.000000 9.695051 4.200257 -1.013198 -7.797450 2.300891 -2.806856 -27.111094 -3.081553 -12.958161 0.000000 0.000000 0.000000 9.572316 4.211374 -0.861404 1.494250 3.324184 -7.899589 -0.980797 0.317857 -0.435082 -14.707624 8.299760 -51.962040 0.324248 -41.454761 -0.596847 0.000000 0.000000 0.000000 9.462921 3.952397 -1.057636 5.280327 22.115843 0.621931 -3.495543 4.775555 -2.489066 -32.074920 -19.514431 52.845980 -1.038585 40.095946 1.388218 0.000000 0.000000 0.000000 
